<svg version="1.1" xmlns="http://www.w3.org/2000/svg" xmlns:xlink="http://www.w3.org/1999/xlink" width="964.67724609375" height="392"><defs/><g><g transform="translate(-86,-38) scale(1,1)"><rect fill="#C0C0C0" stroke="none" x="991" y="167" width="56.67724609375" height="44" opacity="0.2"/></g><g transform="translate(-86,-38) scale(1,1)"><rect fill="#ffffff" stroke="none" x="984" y="160" width="56.67724609375" height="44"/></g><g transform="translate(-86,-38) scale(1,1)"><path fill="none" stroke="#000000" d="M 984 160 L 1040.67724609375 160 L 1040.67724609375 204 L 984 204 L 984 160 Z Z" stroke-miterlimit="10"/></g><g transform="translate(-86,-38) scale(1,1)"><g><path fill="none" stroke="none"/><text fill="#000000" stroke="none" font-family="Arial" font-size="13px" font-style="normal" font-weight="bold" text-decoration="none" x="990.66455078125" y="179.5">Pill Box</text></g></g><g transform="translate(-86,-38) scale(1,1)"><rect fill="#C0C0C0" stroke="none" x="495" y="167" width="52.341796875" height="44" opacity="0.2"/></g><g transform="translate(-86,-38) scale(1,1)"><rect fill="#ffffff" stroke="none" x="488" y="160" width="52.341796875" height="44"/></g><g transform="translate(-86,-38) scale(1,1)"><path fill="none" stroke="#000000" d="M 488 160 L 540.341796875 160 L 540.341796875 204 L 488 204 L 488 160 Z Z" stroke-miterlimit="10"/></g><g transform="translate(-86,-38) scale(1,1)"><g><path fill="none" stroke="none"/><text fill="#000000" stroke="none" font-family="Arial" font-size="13px" font-style="normal" font-weight="bold" text-decoration="none" x="493.9345703125" y="179.5">Patient</text></g></g><g transform="translate(-86,-38) scale(1,1)"><rect fill="#C0C0C0" stroke="none" x="743" y="167" width="79.0908203125" height="44" opacity="0.2"/></g><g transform="translate(-86,-38) scale(1,1)"><rect fill="#ffffff" stroke="none" x="736" y="160" width="79.0908203125" height="44"/></g><g transform="translate(-86,-38) scale(1,1)"><path fill="none" stroke="#000000" d="M 736 160 L 815.0908203125 160 L 815.0908203125 204 L 736 204 L 736 160 Z Z" stroke-miterlimit="10"/></g><g transform="translate(-86,-38) scale(1,1)"><g><path fill="none" stroke="none"/><text fill="#000000" stroke="none" font-family="Arial" font-size="13px" font-style="normal" font-weight="bold" text-decoration="none" x="743.035888671875" y="179.5">Pharmacist</text></g></g><g transform="translate(-86,-38) scale(1,1)"><rect fill="#C0C0C0" stroke="none" x="607" y="383" width="77.62451171875" height="44" opacity="0.2"/></g><g transform="translate(-86,-38) scale(1,1)"><rect fill="#ffffff" stroke="none" x="600" y="376" width="77.62451171875" height="44"/></g><g transform="translate(-86,-38) scale(1,1)"><path fill="none" stroke="#000000" d="M 600 376 L 677.62451171875 376 L 677.62451171875 420 L 600 420 L 600 376 Z Z" stroke-miterlimit="10"/></g><g transform="translate(-86,-38) scale(1,1)"><g><path fill="none" stroke="none"/><text fill="#000000" stroke="none" font-family="Arial" font-size="13px" font-style="normal" font-weight="bold" text-decoration="none" x="607.74365234375" y="395.5">Precription</text></g></g><g transform="translate(-86,-38) scale(1,1)"><path fill="none" stroke="#000000" d="M 540 182 L 736 182" stroke-miterlimit="10"/></g><g transform="translate(-86,-38) scale(1,1)"><path fill="none" stroke="#000000" d="M 725.8373251423759 186.209517756016 L 736 182 L 725.8373251423758 177.790482243984" stroke-miterlimit="10"/></g><g transform="translate(-86,-38) scale(1,1)"><path fill="none" stroke="#000000" d="M 642 375 L 642 182 L 639 182" stroke-miterlimit="10" stroke-dasharray="3"/></g><g transform="translate(-86,-38) scale(1,1)"><rect fill="#C0C0C0" stroke="none" x="111" y="167" width="50.919921875" height="44" opacity="0.2"/></g><g transform="translate(-86,-38) scale(1,1)"><rect fill="#ffffff" stroke="none" x="104" y="160" width="50.919921875" height="44"/></g><g transform="translate(-86,-38) scale(1,1)"><path fill="none" stroke="#000000" d="M 104 160 L 154.919921875 160 L 154.919921875 204 L 104 204 L 104 160 Z Z" stroke-miterlimit="10"/></g><g transform="translate(-86,-38) scale(1,1)"><g><path fill="none" stroke="none"/><text fill="#000000" stroke="none" font-family="Arial" font-size="13px" font-style="normal" font-weight="bold" text-decoration="none" x="110.3154296875" y="179.5">Doctor</text></g></g><g transform="translate(-86,-38) scale(1,1)"><rect fill="#C0C0C0" stroke="none" x="287" y="55" width="75.4599609375" height="44" opacity="0.2"/></g><g transform="translate(-86,-38) scale(1,1)"><rect fill="#ffffff" stroke="none" x="280" y="48" width="75.4599609375" height="44"/></g><g transform="translate(-86,-38) scale(1,1)"><path fill="none" stroke="#000000" d="M 280 48 L 355.4599609375 48 L 355.4599609375 92 L 280 92 L 280 48 Z Z" stroke-miterlimit="10"/></g><g transform="translate(-86,-38) scale(1,1)"><g><path fill="none" stroke="none"/><text fill="#000000" stroke="none" font-family="Arial" font-size="13px" font-style="normal" font-weight="bold" text-decoration="none" x="287.029541015625" y="67.5">Symptoms</text></g></g><g transform="translate(-86,-38) scale(1,1)"><rect fill="#C0C0C0" stroke="none" x="103" y="359" width="77.62451171875" height="44" opacity="0.2"/></g><g transform="translate(-86,-38) scale(1,1)"><rect fill="#ffffff" stroke="none" x="96" y="352" width="77.62451171875" height="44"/></g><g transform="translate(-86,-38) scale(1,1)"><path fill="none" stroke="#000000" d="M 96 352 L 173.62451171875 352 L 173.62451171875 396 L 96 396 L 96 352 Z Z" stroke-miterlimit="10"/></g><g transform="translate(-86,-38) scale(1,1)"><g><path fill="none" stroke="none"/><text fill="#000000" stroke="none" font-family="Arial" font-size="13px" font-style="normal" font-weight="bold" text-decoration="none" x="103.74365234375" y="371.5">Precription</text></g></g><g transform="translate(-86,-38) scale(1,1)"><path fill="none" stroke="#000000" d="M 488 182 L 155 182" stroke-miterlimit="10"/></g><g transform="translate(-86,-38) scale(1,1)"><path fill="none" stroke="#000000" d="M 165.16267485762415 177.790482243984 L 155 182 L 165.16267485762415 186.209517756016" stroke-miterlimit="10"/></g><g transform="translate(-86,-38) scale(1,1)"><path fill="none" stroke="#000000" d="M 318 93 L 318 182 L 320 182" stroke-miterlimit="10" stroke-dasharray="3"/></g><g transform="translate(-86,-38) scale(1,1)"><path fill="none" stroke="#000000" d="M 130 204 L 130 352" stroke-miterlimit="10"/></g><g transform="translate(-86,-38) scale(1,1)"><path fill="none" stroke="#000000" d="M 125.79048224398402 341.83732514237585 L 130 352 L 134.209517756016 341.83732514237585" stroke-miterlimit="10"/></g><g transform="translate(-86,-38) scale(1,1)"><path fill="none" stroke="#000000" d="M 175 353 L 487 196" stroke-miterlimit="10"/></g><g transform="translate(-86,-38) scale(1,1)"><path fill="#FFFFFF" stroke="none" d="M 472.6281695999651 212.65684516805726 L 487 196 L 465.05941309456466 197.61574943758"/></g><g transform="translate(-86,-38) scale(1,1)"><path fill="none" stroke="#000000" d="M 472.6281695999651 212.65684516805726 L 487 196 L 465.05941309456466 197.61574943758 L 472.6281695999651 212.65684516805726" stroke-miterlimit="10"/></g><g transform="translate(-86,-38) scale(1,1)"><path fill="none" stroke="#000000" d="M 815 182 L 984 182" stroke-miterlimit="10"/></g><g transform="translate(-86,-38) scale(1,1)"><path fill="none" stroke="#000000" d="M 973.8373251423759 186.209517756016 L 984 182 L 973.8373251423758 177.790482243984" stroke-miterlimit="10"/></g><g transform="translate(-86,-38) scale(1,1)"><rect fill="#C0C0C0" stroke="none" x="839" y="375" width="152" height="44" opacity="0.2"/></g><g transform="translate(-86,-38) scale(1,1)"><rect fill="#ffffff" stroke="none" x="832" y="368" width="152" height="44"/></g><g transform="translate(-86,-38) scale(1,1)"><path fill="none" stroke="#000000" d="M 832 368 L 984 368 L 984 412 L 832 412 L 832 368 Z Z" stroke-miterlimit="10"/></g><g transform="translate(-86,-38) scale(1,1)"><g><path fill="none" stroke="none"/><text fill="#000000" stroke="none" font-family="Arial" font-size="13px" font-style="normal" font-weight="bold" text-decoration="none" x="843.69189453125" y="387.5">precription information</text></g></g><g transform="translate(-86,-38) scale(1,1)"><path fill="none" stroke="#000000" d="M 899 367 L 899 183" stroke-miterlimit="10" stroke-dasharray="3"/></g></g></svg>