<svg version="1.1" xmlns="http://www.w3.org/2000/svg" xmlns:xlink="http://www.w3.org/1999/xlink" width="675" height="724"><defs/><g><g transform="translate(-78,-30) scale(1,1)"><rect fill="#C0C0C0" stroke="none" x="647" y="47" width="77.5" height="39" opacity="0.2"/></g><g transform="translate(-78,-30) scale(1,1)"><rect fill="#ffffff" stroke="none" x="640" y="40" width="77.5" height="39"/></g><g transform="translate(-78,-30) scale(1,1)"><path fill="none" stroke="#000000" d="M 640 40 L 717.5 40 L 717.5 79 L 640 79 L 640 40 Z Z" stroke-miterlimit="10"/></g><g transform="translate(-78,-30) scale(1,1)"><g><path fill="none" stroke="none"/><text fill="#000000" stroke="none" font-family="Arial" font-size="13px" font-style="normal" font-weight="bold" text-decoration="none" x="651.65185546875" y="59.5">AerCloud</text></g></g><g transform="translate(-78,-30) scale(1,1)"><path fill="none" stroke="#000000" d="M 679.5 80 L 679.5 704" stroke-miterlimit="10" stroke-dasharray="3"/></g><g transform="translate(-78,-30) scale(1,1)"><rect fill="#C0C0C0" stroke="none" x="399" y="47" width="74.6181640625" height="39" opacity="0.2"/></g><g transform="translate(-78,-30) scale(1,1)"><rect fill="#ffffff" stroke="none" x="392" y="40" width="74.6181640625" height="39"/></g><g transform="translate(-78,-30) scale(1,1)"><path fill="none" stroke="#000000" d="M 392 40 L 466.6181640625 40 L 466.6181640625 79 L 392 79 L 392 40 Z Z" stroke-miterlimit="10"/></g><g transform="translate(-78,-30) scale(1,1)"><g><path fill="none" stroke="none"/><text fill="#000000" stroke="none" font-family="Arial" font-size="13px" font-style="normal" font-weight="bold" text-decoration="none" x="404.023193359375" y="59.5">: Pill Box</text></g></g><g transform="translate(-78,-30) scale(1,1)"><path fill="none" stroke="#000000" d="M 430.5 80 L 430.5 736" stroke-miterlimit="10" stroke-dasharray="3"/></g><g transform="translate(-78,-30) scale(1,1)"><rect fill="#C0C0C0" stroke="none" x="151" y="47" width="70.28271484375" height="39" opacity="0.2"/></g><g transform="translate(-78,-30) scale(1,1)"><rect fill="#ffffff" stroke="none" x="144" y="40" width="70.28271484375" height="39"/></g><g transform="translate(-78,-30) scale(1,1)"><path fill="none" stroke="#000000" d="M 144 40 L 214.28271484375 40 L 214.28271484375 79 L 144 79 L 144 40 Z Z" stroke-miterlimit="10"/></g><g transform="translate(-78,-30) scale(1,1)"><g><path fill="none" stroke="none"/><text fill="#000000" stroke="none" font-family="Arial" font-size="13px" font-style="normal" font-weight="bold" text-decoration="none" x="155.293212890625" y="59.5">: Patient</text></g></g><g transform="translate(-78,-30) scale(1,1)"><path fill="none" stroke="#000000" d="M 180.5 80 L 180.5 744" stroke-miterlimit="10" stroke-dasharray="3"/></g><g transform="translate(-78,-30) scale(1,1)"><path fill="none" stroke="#000000" d="M 88 264 L 743 264 L 743 464 L 88 464 L 88 264" stroke-miterlimit="10"/></g><g transform="translate(-78,-30) scale(1,1)"><path fill="#ffffff" stroke="none" d="M 88 264 L 88 286 L 195.06982421875 286 L 206.06982421875 275 L 206.06982421875 264 L 88 264"/></g><g transform="translate(-78,-30) scale(1,1)"><path fill="none" stroke="#000000" d="M 88 264 L 88 286 L 195.06982421875 286 L 206.06982421875 275 L 206.06982421875 264 L 88 264 L 88 264" stroke-miterlimit="10"/></g><g transform="translate(-78,-30) scale(1,1)"><g><path fill="none" stroke="none"/><text fill="#000000" stroke="none" font-family="Arial" font-size="13px" font-style="normal" font-weight="normal" text-decoration="none" x="117.07177734375" y="281.5">noResponse</text></g></g><g transform="translate(-78,-30) scale(1,1)"><g><path fill="none" stroke="none"/><text fill="#000000" stroke="none" font-family="Arial" font-size="13px" font-style="normal" font-weight="bold" text-decoration="none" x="93" y="281.5">opt</text></g></g><g transform="translate(-78,-30) scale(1,1)"><path fill="none" stroke="#000000" d="M 430 112 L 460 112 L 460 132 L 436 132" stroke-miterlimit="10"/></g><g transform="translate(-78,-30) scale(1,1)"><path fill="#000000" stroke="none" d="M 446.16267485762415 127.79048224398402 L 436 132 L 446.16267485762415 136.209517756016"/></g><g transform="translate(-78,-30) scale(1,1)"><path fill="none" stroke="#000000" d="M 446.16267485762415 127.79048224398402 L 436 132 L 446.16267485762415 136.209517756016 L 446.16267485762415 127.79048224398402" stroke-miterlimit="10"/></g><g transform="translate(-78,-30) scale(1,1)"><g><path fill="none" stroke="none"/><text fill="#000000" stroke="none" font-family="Arial" font-size="13px" font-style="normal" font-weight="normal" text-decoration="none" x="471" y="133">1 : CheckTime</text></g></g><g transform="translate(-78,-30) scale(1,1)"><rect fill="#ffffff" stroke="none" x="423" y="132" width="13" height="444"/></g><g transform="translate(-78,-30) scale(1,1)"><path fill="none" stroke="#000000" d="M 423 132 L 436 132 L 436 576 L 423 576 L 423 132 Z Z" stroke-miterlimit="10"/></g><g transform="translate(-78,-30) scale(1,1)"><path fill="none" stroke="#000000" d="M 672 385 L 186 385" stroke-miterlimit="10"/></g><g transform="translate(-78,-30) scale(1,1)"><path fill="none" stroke="#000000" d="M 196.16267485762415 380.790482243984 L 186 385 L 196.16267485762415 389.209517756016" stroke-miterlimit="10"/></g><g transform="translate(-78,-30) scale(1,1)"><g><path fill="none" stroke="none"/><text fill="#000000" stroke="none" font-family="Arial" font-size="13px" font-style="normal" font-weight="normal" text-decoration="none" x="460" y="373">10 : sendNotification</text></g></g><g transform="translate(-78,-30) scale(1,1)"><rect fill="#ffffff" stroke="none" x="173" y="385" width="13" height="28"/></g><g transform="translate(-78,-30) scale(1,1)"><path fill="none" stroke="#000000" d="M 173 385 L 186 385 L 186 413 L 173 413 L 173 385 Z Z" stroke-miterlimit="10"/></g><g transform="translate(-78,-30) scale(1,1)"><path fill="none" stroke="#000000" d="M 436 296 L 672 296" stroke-miterlimit="10"/></g><g transform="translate(-78,-30) scale(1,1)"><path fill="#000000" stroke="none" d="M 661.8373251423759 300.209517756016 L 672 296 L 661.8373251423758 291.790482243984"/></g><g transform="translate(-78,-30) scale(1,1)"><path fill="none" stroke="#000000" d="M 661.8373251423759 300.209517756016 L 672 296 L 661.8373251423758 291.790482243984 L 661.8373251423759 300.209517756016" stroke-miterlimit="10"/></g><g transform="translate(-78,-30) scale(1,1)"><g><path fill="none" stroke="none"/><text fill="#000000" stroke="none" font-family="Arial" font-size="13px" font-style="normal" font-weight="normal" text-decoration="none" x="482" y="293">8 : sendCloudNotification</text></g></g><g transform="translate(-78,-30) scale(1,1)"><rect fill="#ffffff" stroke="none" x="672" y="296" width="13" height="126"/></g><g transform="translate(-78,-30) scale(1,1)"><path fill="none" stroke="#000000" d="M 672 296 L 685 296 L 685 422 L 672 422 L 672 296 Z Z" stroke-miterlimit="10"/></g><g transform="translate(-78,-30) scale(1,1)"><path fill="none" stroke="#000000" d="M 423 168 L 186 168" stroke-miterlimit="10"/></g><g transform="translate(-78,-30) scale(1,1)"><path fill="#000000" stroke="none" d="M 196.16267485762415 163.790482243984 L 186 168 L 196.16267485762415 172.209517756016"/></g><g transform="translate(-78,-30) scale(1,1)"><path fill="none" stroke="#000000" d="M 196.16267485762415 163.790482243984 L 186 168 L 196.16267485762415 172.209517756016 L 196.16267485762415 163.790482243984" stroke-miterlimit="10"/></g><g transform="translate(-78,-30) scale(1,1)"><g><path fill="none" stroke="none"/><text fill="#000000" stroke="none" font-family="Arial" font-size="13px" font-style="normal" font-weight="normal" text-decoration="none" x="248" y="185">2 : sendNotification</text></g></g><g transform="translate(-78,-30) scale(1,1)"><rect fill="#ffffff" stroke="none" x="173" y="168" width="13" height="80"/></g><g transform="translate(-78,-30) scale(1,1)"><path fill="none" stroke="#000000" d="M 173 168 L 186 168 L 186 248 L 173 248 L 173 168 Z Z" stroke-miterlimit="10"/></g><g transform="translate(-78,-30) scale(1,1)"><path fill="none" stroke="#000000" d="M 186 240 L 423 240" stroke-miterlimit="10" stroke-dasharray="3"/></g><g transform="translate(-78,-30) scale(1,1)"><path fill="none" stroke="#000000" d="M 412.83732514237585 244.209517756016 L 423 240 L 412.83732514237585 235.790482243984" stroke-miterlimit="10"/></g><g transform="translate(-78,-30) scale(1,1)"><g><path fill="none" stroke="none"/><text fill="#000000" stroke="none" font-family="Arial" font-size="13px" font-style="normal" font-weight="normal" text-decoration="none" x="266" y="237">3 : Response</text></g></g></g></svg>