<svg version="1.1" xmlns="http://www.w3.org/2000/svg" xmlns:xlink="http://www.w3.org/1999/xlink" width="883.3544921875" height="940"><defs/><g><g transform="translate(-86,-30) scale(1,1)"><rect fill="#C0C0C0" stroke="none" x="479" y="47" width="80.38818359375" height="39" opacity="0.2"/></g><g transform="translate(-86,-30) scale(1,1)"><rect fill="#ffffff" stroke="none" x="472" y="40" width="80.38818359375" height="39"/></g><g transform="translate(-86,-30) scale(1,1)"><path fill="none" stroke="#000000" d="M 472 40 L 552.38818359375 40 L 552.38818359375 79 L 472 79 L 472 40 Z Z" stroke-miterlimit="10"/></g><g transform="translate(-86,-30) scale(1,1)"><g><path fill="none" stroke="none"/><text fill="#000000" stroke="none" font-family="Arial" font-size="13px" font-style="normal" font-weight="bold" text-decoration="none" x="483.655029296875" y="59.5">Computer</text></g></g><g transform="translate(-86,-30) scale(1,1)"><path fill="none" stroke="#000000" d="M 513.5 80 L 513.5 960" stroke-miterlimit="10" stroke-dasharray="3"/></g><g transform="translate(-86,-30) scale(1,1)"><rect fill="#C0C0C0" stroke="none" x="103" y="47" width="158.45166015625" height="39" opacity="0.2"/></g><g transform="translate(-86,-30) scale(1,1)"><rect fill="#ffffff" stroke="none" x="96" y="40" width="158.45166015625" height="39"/></g><g transform="translate(-86,-30) scale(1,1)"><path fill="none" stroke="#000000" d="M 96 40 L 254.45166015625 40 L 254.45166015625 79 L 96 79 L 96 40 Z Z" stroke-miterlimit="10"/></g><g transform="translate(-86,-30) scale(1,1)"><g><path fill="none" stroke="none"/><text fill="#000000" stroke="none" font-family="Arial" font-size="13px" font-style="normal" font-weight="bold" text-decoration="none" x="139.1044921875" y="59.5">: Pharmacist</text></g></g><g transform="translate(-86,-30) scale(1,1)"><path fill="none" stroke="#000000" d="M 176.5 80 L 176.5 928" stroke-miterlimit="10" stroke-dasharray="3"/></g><g transform="translate(-86,-30) scale(1,1)"><rect fill="#C0C0C0" stroke="none" x="839" y="47" width="127.3544921875" height="39" opacity="0.2"/></g><g transform="translate(-86,-30) scale(1,1)"><rect fill="#ffffff" stroke="none" x="832" y="40" width="127.3544921875" height="39"/></g><g transform="translate(-86,-30) scale(1,1)"><path fill="none" stroke="#000000" d="M 832 40 L 959.3544921875 40 L 959.3544921875 79 L 832 79 L 832 40 Z Z" stroke-miterlimit="10"/></g><g transform="translate(-86,-30) scale(1,1)"><g><path fill="none" stroke="none"/><text fill="#000000" stroke="none" font-family="Arial" font-size="13px" font-style="normal" font-weight="bold" text-decoration="none" x="870.391357421875" y="59.5">: Pill Box</text></g></g><g transform="translate(-86,-30) scale(1,1)"><path fill="none" stroke="#000000" d="M 896.5 80 L 896.5 888" stroke-miterlimit="10" stroke-dasharray="3"/></g><g transform="translate(-86,-30) scale(1,1)"><path fill="none" stroke="#000000" d="M 176 184 L 506 184" stroke-miterlimit="10"/></g><g transform="translate(-86,-30) scale(1,1)"><path fill="#000000" stroke="none" d="M 495.83732514237585 188.209517756016 L 506 184 L 495.83732514237585 179.790482243984"/></g><g transform="translate(-86,-30) scale(1,1)"><path fill="none" stroke="#000000" d="M 495.83732514237585 188.209517756016 L 506 184 L 495.83732514237585 179.790482243984 L 495.83732514237585 188.209517756016" stroke-miterlimit="10"/></g><g transform="translate(-86,-30) scale(1,1)"><g><path fill="none" stroke="none"/><text fill="#000000" stroke="none" font-family="Arial" font-size="13px" font-style="normal" font-weight="normal" text-decoration="none" x="237" y="181">1 : SimpleBottle(PillCount, Duration)</text></g></g><g transform="translate(-86,-30) scale(1,1)"><rect fill="#ffffff" stroke="none" x="506" y="184" width="13" height="192"/></g><g transform="translate(-86,-30) scale(1,1)"><path fill="none" stroke="#000000" d="M 506 184 L 519 184 L 519 376 L 506 376 L 506 184 Z Z" stroke-miterlimit="10"/></g><g transform="translate(-86,-30) scale(1,1)"><path fill="none" stroke="#000000" d="M 519 216 L 549 216 L 549 236 L 526 236" stroke-miterlimit="10"/></g><g transform="translate(-86,-30) scale(1,1)"><path fill="#000000" stroke="none" d="M 536.1626748576241 231.790482243984 L 526 236 L 536.1626748576241 240.209517756016"/></g><g transform="translate(-86,-30) scale(1,1)"><path fill="none" stroke="#000000" d="M 536.1626748576241 231.790482243984 L 526 236 L 536.1626748576241 240.209517756016 L 536.1626748576241 231.790482243984" stroke-miterlimit="10"/></g><g transform="translate(-86,-30) scale(1,1)"><g><path fill="none" stroke="none"/><text fill="#000000" stroke="none" font-family="Arial" font-size="13px" font-style="normal" font-weight="normal" text-decoration="none" x="550" y="232">2 : CreateJSON(PillCount, Duration)</text></g></g><g transform="translate(-86,-30) scale(1,1)"><rect fill="#ffffff" stroke="none" x="513" y="236" width="13" height="52"/></g><g transform="translate(-86,-30) scale(1,1)"><path fill="none" stroke="#000000" d="M 513 236 L 526 236 L 526 288 L 513 288 L 513 236 Z Z" stroke-miterlimit="10"/></g><g transform="translate(-86,-30) scale(1,1)"><path fill="none" stroke="#000000" d="M 519 313 L 889 313" stroke-miterlimit="10"/></g><g transform="translate(-86,-30) scale(1,1)"><path fill="#000000" stroke="none" d="M 878.8373251423759 317.209517756016 L 889 313 L 878.8373251423758 308.790482243984"/></g><g transform="translate(-86,-30) scale(1,1)"><path fill="none" stroke="#000000" d="M 878.8373251423759 317.209517756016 L 889 313 L 878.8373251423758 308.790482243984 L 878.8373251423759 317.209517756016" stroke-miterlimit="10"/></g><g transform="translate(-86,-30) scale(1,1)"><g><path fill="none" stroke="none"/><text fill="#000000" stroke="none" font-family="Arial" font-size="13px" font-style="normal" font-weight="normal" text-decoration="none" x="608" y="310">3 : sendInfo((PillCount, Duration))</text></g></g><g transform="translate(-86,-30) scale(1,1)"><rect fill="#ffffff" stroke="none" x="889" y="313" width="13" height="28"/></g><g transform="translate(-86,-30) scale(1,1)"><path fill="none" stroke="#000000" d="M 889 313 L 902 313 L 902 341 L 889 341 L 889 313 Z Z" stroke-miterlimit="10"/></g></g></svg>