<svg version="1.1" xmlns="http://www.w3.org/2000/svg" xmlns:xlink="http://www.w3.org/1999/xlink" width="804" height="794"><defs/><g><g transform="translate(-94,-30) scale(1,1)"><rect fill="#C0C0C0" stroke="none" x="183" y="47" width="123.01904296875" height="39" opacity="0.2"/></g><g transform="translate(-94,-30) scale(1,1)"><rect fill="#ffffff" stroke="none" x="176" y="40" width="123.01904296875" height="39"/></g><g transform="translate(-94,-30) scale(1,1)"><path fill="none" stroke="#000000" d="M 176 40 L 299.01904296875 40 L 299.01904296875 79 L 176 79 L 176 40 Z Z" stroke-miterlimit="10"/></g><g transform="translate(-94,-30) scale(1,1)"><g><path fill="none" stroke="none"/><text fill="#000000" stroke="none" font-family="Arial" font-size="13px" font-style="normal" font-weight="bold" text-decoration="none" x="213.661376953125" y="59.5">: Patient</text></g></g><g transform="translate(-94,-30) scale(1,1)"><path fill="none" stroke="#000000" d="M 238.5 80 L 238.5 814" stroke-miterlimit="10" stroke-dasharray="3"/></g><g transform="translate(-94,-30) scale(1,1)"><rect fill="#C0C0C0" stroke="none" x="447" y="47" width="127.3544921875" height="39" opacity="0.2"/></g><g transform="translate(-94,-30) scale(1,1)"><rect fill="#ffffff" stroke="none" x="440" y="40" width="127.3544921875" height="39"/></g><g transform="translate(-94,-30) scale(1,1)"><path fill="none" stroke="#000000" d="M 440 40 L 567.3544921875 40 L 567.3544921875 79 L 440 79 L 440 40 Z Z" stroke-miterlimit="10"/></g><g transform="translate(-94,-30) scale(1,1)"><g><path fill="none" stroke="none"/><text fill="#000000" stroke="none" font-family="Arial" font-size="13px" font-style="normal" font-weight="bold" text-decoration="none" x="478.391357421875" y="59.5">: Pill Box</text></g></g><g transform="translate(-94,-30) scale(1,1)"><path fill="none" stroke="#000000" d="M 504.5 80 L 504.5 814" stroke-miterlimit="10" stroke-dasharray="3"/></g><g transform="translate(-94,-30) scale(1,1)"><path fill="none" stroke="#000000" d="M 104 152 L 888 152 L 888 776 L 104 776 L 104 152" stroke-miterlimit="10"/></g><g transform="translate(-94,-30) scale(1,1)"><path fill="#ffffff" stroke="none" d="M 104 152 L 104 174 L 151.8017578125 174 L 162.8017578125 163 L 162.8017578125 152 L 104 152"/></g><g transform="translate(-94,-30) scale(1,1)"><path fill="none" stroke="#000000" d="M 104 152 L 104 174 L 151.8017578125 174 L 162.8017578125 163 L 162.8017578125 152 L 104 152 L 104 152" stroke-miterlimit="10"/></g><g transform="translate(-94,-30) scale(1,1)"><g><path fill="none" stroke="none"/><text fill="#000000" stroke="none" font-family="Arial" font-size="13px" font-style="normal" font-weight="normal" text-decoration="none" x="139.578125" y="169.5">  </text></g></g><g transform="translate(-94,-30) scale(1,1)"><g><path fill="none" stroke="none"/><text fill="#000000" stroke="none" font-family="Arial" font-size="13px" font-style="normal" font-weight="bold" text-decoration="none" x="109" y="169.5">loop</text></g></g><g transform="translate(-94,-30) scale(1,1)"><rect fill="#C0C0C0" stroke="none" x="719" y="47" width="77.5" height="39" opacity="0.2"/></g><g transform="translate(-94,-30) scale(1,1)"><rect fill="#ffffff" stroke="none" x="712" y="40" width="77.5" height="39"/></g><g transform="translate(-94,-30) scale(1,1)"><path fill="none" stroke="#000000" d="M 712 40 L 789.5 40 L 789.5 79 L 712 79 L 712 40 Z Z" stroke-miterlimit="10"/></g><g transform="translate(-94,-30) scale(1,1)"><g><path fill="none" stroke="none"/><text fill="#000000" stroke="none" font-family="Arial" font-size="13px" font-style="normal" font-weight="bold" text-decoration="none" x="723.65185546875" y="59.5">AerCloud</text></g></g><g transform="translate(-94,-30) scale(1,1)"><path fill="none" stroke="#000000" d="M 751.5 80 L 751.5 786" stroke-miterlimit="10" stroke-dasharray="3"/></g><g transform="translate(-94,-30) scale(1,1)"><path fill="none" stroke="#000000" d="M 160 392 L 687 392 L 687 624 L 160 624 L 160 392" stroke-miterlimit="10"/></g><g transform="translate(-94,-30) scale(1,1)"><path fill="#ffffff" stroke="none" d="M 160 392 L 160 414 L 241.76806640625 414 L 252.76806640625 403 L 252.76806640625 392 L 160 392"/></g><g transform="translate(-94,-30) scale(1,1)"><path fill="none" stroke="#000000" d="M 160 392 L 160 414 L 241.76806640625 414 L 252.76806640625 403 L 252.76806640625 392 L 160 392 L 160 392" stroke-miterlimit="10"/></g><g transform="translate(-94,-30) scale(1,1)"><g><path fill="none" stroke="none"/><text fill="#000000" stroke="none" font-family="Arial" font-size="13px" font-style="normal" font-weight="normal" text-decoration="none" x="189.07177734375" y="409.5">SendPill</text></g></g><g transform="translate(-94,-30) scale(1,1)"><g><path fill="none" stroke="none"/><text fill="#000000" stroke="none" font-family="Arial" font-size="13px" font-style="normal" font-weight="bold" text-decoration="none" x="165" y="409.5">opt</text></g></g><g transform="translate(-94,-30) scale(1,1)"><path fill="none" stroke="#000000" d="M 238 208 L 497 208" stroke-miterlimit="10"/></g><g transform="translate(-94,-30) scale(1,1)"><path fill="#000000" stroke="none" d="M 486.83732514237585 212.209517756016 L 497 208 L 486.83732514237585 203.790482243984"/></g><g transform="translate(-94,-30) scale(1,1)"><path fill="none" stroke="#000000" d="M 486.83732514237585 212.209517756016 L 497 208 L 486.83732514237585 203.790482243984 L 486.83732514237585 212.209517756016" stroke-miterlimit="10"/></g><g transform="translate(-94,-30) scale(1,1)"><g><path fill="none" stroke="none"/><text fill="#000000" stroke="none" font-family="Arial" font-size="13px" font-style="normal" font-weight="normal" text-decoration="none" x="296" y="205">13 : PushAndHoldButton</text></g></g><g transform="translate(-94,-30) scale(1,1)"><rect fill="#ffffff" stroke="none" x="497" y="208" width="13" height="512"/></g><g transform="translate(-94,-30) scale(1,1)"><path fill="none" stroke="#000000" d="M 497 208 L 510 208 L 510 720 L 497 720 L 497 208 Z Z" stroke-miterlimit="10"/></g><g transform="translate(-94,-30) scale(1,1)"><path fill="none" stroke="#000000" d="M 510 664 L 744 664" stroke-miterlimit="10"/></g><g transform="translate(-94,-30) scale(1,1)"><path fill="none" stroke="#000000" d="M 733.8373251423759 668.209517756016 L 744 664 L 733.8373251423758 659.790482243984" stroke-miterlimit="10"/></g><g transform="translate(-94,-30) scale(1,1)"><g><path fill="none" stroke="none"/><text fill="#000000" stroke="none" font-family="Arial" font-size="13px" font-style="normal" font-weight="normal" text-decoration="none" x="524" y="661">12 : sendData(timestamp, pillTaken)</text></g></g><g transform="translate(-94,-30) scale(1,1)"><rect fill="#ffffff" stroke="none" x="744" y="664" width="13" height="28"/></g><g transform="translate(-94,-30) scale(1,1)"><path fill="none" stroke="#000000" d="M 744 664 L 757 664 L 757 692 L 744 692 L 744 664 Z Z" stroke-miterlimit="10"/></g><g transform="translate(-94,-30) scale(1,1)"><path fill="none" stroke="#000000" d="M 244 508 L 504 508" stroke-miterlimit="10" stroke-dasharray="3"/></g><g transform="translate(-94,-30) scale(1,1)"><path fill="none" stroke="#000000" d="M 493.83732514237585 512.209517756016 L 504 508 L 493.83732514237585 503.790482243984" stroke-miterlimit="10"/></g><g transform="translate(-94,-30) scale(1,1)"><g><path fill="none" stroke="none"/><text fill="#000000" stroke="none" font-family="Arial" font-size="13px" font-style="normal" font-weight="normal" text-decoration="none" x="330" y="505">11 : isPillTaken</text></g></g><g transform="translate(-94,-30) scale(1,1)"><path fill="none" stroke="#000000" d="M 510 232 L 540 232 L 540 252 L 517 252" stroke-miterlimit="10"/></g><g transform="translate(-94,-30) scale(1,1)"><path fill="#000000" stroke="none" d="M 527.1626748576241 247.790482243984 L 517 252 L 527.1626748576241 256.209517756016"/></g><g transform="translate(-94,-30) scale(1,1)"><path fill="none" stroke="#000000" d="M 527.1626748576241 247.790482243984 L 517 252 L 527.1626748576241 256.209517756016 L 527.1626748576241 247.790482243984" stroke-miterlimit="10"/></g><g transform="translate(-94,-30) scale(1,1)"><g><path fill="none" stroke="none"/><text fill="#000000" stroke="none" font-family="Arial" font-size="13px" font-style="normal" font-weight="normal" text-decoration="none" x="551" y="248">2 : takePill = CheckTime</text></g></g><g transform="translate(-94,-30) scale(1,1)"><rect fill="#ffffff" stroke="none" x="504" y="252" width="13" height="127"/></g><g transform="translate(-94,-30) scale(1,1)"><path fill="none" stroke="#000000" d="M 504 252 L 517 252 L 517 379 L 504 379 L 504 252 Z Z" stroke-miterlimit="10"/></g><g transform="translate(-94,-30) scale(1,1)"><path fill="none" stroke="#000000" d="M 517 280 L 547 280 L 547 300 L 524 300" stroke-miterlimit="10"/></g><g transform="translate(-94,-30) scale(1,1)"><path fill="#000000" stroke="none" d="M 534.1626748576241 295.790482243984 L 524 300 L 534.1626748576241 304.209517756016"/></g><g transform="translate(-94,-30) scale(1,1)"><path fill="none" stroke="#000000" d="M 534.1626748576241 295.790482243984 L 524 300 L 534.1626748576241 304.209517756016 L 534.1626748576241 295.790482243984" stroke-miterlimit="10"/></g><g transform="translate(-94,-30) scale(1,1)"><g><path fill="none" stroke="none"/><text fill="#000000" stroke="none" font-family="Arial" font-size="13px" font-style="normal" font-weight="normal" text-decoration="none" x="560" y="296">9 : CheckPrescription</text></g></g><g transform="translate(-94,-30) scale(1,1)"><rect fill="#ffffff" stroke="none" x="511" y="300" width="13" height="28"/></g><g transform="translate(-94,-30) scale(1,1)"><path fill="none" stroke="#000000" d="M 511 300 L 524 300 L 524 328 L 511 328 L 511 300 Z Z" stroke-miterlimit="10"/></g><g transform="translate(-94,-30) scale(1,1)"><path fill="none" stroke="#000000" d="M 510 424 L 540 424 L 540 444 L 517 444" stroke-miterlimit="10"/></g><g transform="translate(-94,-30) scale(1,1)"><path fill="#000000" stroke="none" d="M 527.1626748576241 439.790482243984 L 517 444 L 527.1626748576241 448.209517756016"/></g><g transform="translate(-94,-30) scale(1,1)"><path fill="none" stroke="#000000" d="M 527.1626748576241 439.790482243984 L 517 444 L 527.1626748576241 448.209517756016 L 527.1626748576241 439.790482243984" stroke-miterlimit="10"/></g><g transform="translate(-94,-30) scale(1,1)"><g><path fill="none" stroke="none"/><text fill="#000000" stroke="none" font-family="Arial" font-size="13px" font-style="normal" font-weight="normal" text-decoration="none" x="551" y="429">4 : send pill(takePill)</text></g></g><g transform="translate(-94,-30) scale(1,1)"><rect fill="#ffffff" stroke="none" x="504" y="444" width="13" height="183"/></g><g transform="translate(-94,-30) scale(1,1)"><path fill="none" stroke="#000000" d="M 504 444 L 517 444 L 517 627 L 504 627 L 504 444 Z Z" stroke-miterlimit="10"/></g><g transform="translate(-94,-30) scale(1,1)"><path fill="none" stroke="#000000" d="M 517 528 L 547 528 L 547 548 L 524 548" stroke-miterlimit="10"/></g><g transform="translate(-94,-30) scale(1,1)"><path fill="#000000" stroke="none" d="M 534.1626748576241 543.790482243984 L 524 548 L 534.1626748576241 552.209517756016"/></g><g transform="translate(-94,-30) scale(1,1)"><path fill="none" stroke="#000000" d="M 534.1626748576241 543.790482243984 L 524 548 L 534.1626748576241 552.209517756016 L 534.1626748576241 543.790482243984" stroke-miterlimit="10"/></g><g transform="translate(-94,-30) scale(1,1)"><g><path fill="none" stroke="none"/><text fill="#000000" stroke="none" font-family="Arial" font-size="13px" font-style="normal" font-weight="normal" text-decoration="none" x="552" y="544">7 : updatePillCount</text></g></g><g transform="translate(-94,-30) scale(1,1)"><rect fill="#ffffff" stroke="none" x="511" y="548" width="13" height="28"/></g><g transform="translate(-94,-30) scale(1,1)"><path fill="none" stroke="#000000" d="M 511 548 L 524 548 L 524 576 L 511 576 L 511 548 Z Z" stroke-miterlimit="10"/></g><g transform="translate(-94,-30) scale(1,1)"><path fill="none" stroke="#000000" d="M 504 456 L 244 456" stroke-miterlimit="10"/></g><g transform="translate(-94,-30) scale(1,1)"><path fill="#000000" stroke="none" d="M 254.16267485762415 451.790482243984 L 244 456 L 254.16267485762415 460.209517756016"/></g><g transform="translate(-94,-30) scale(1,1)"><path fill="none" stroke="#000000" d="M 254.16267485762415 451.790482243984 L 244 456 L 254.16267485762415 460.209517756016 L 254.16267485762415 451.790482243984" stroke-miterlimit="10"/></g><g transform="translate(-94,-30) scale(1,1)"><g><path fill="none" stroke="none"/><text fill="#000000" stroke="none" font-family="Arial" font-size="13px" font-style="normal" font-weight="normal" text-decoration="none" x="340" y="473">5 : SendPIll</text></g></g><g transform="translate(-94,-30) scale(1,1)"><rect fill="#ffffff" stroke="none" x="231" y="456" width="13" height="56"/></g><g transform="translate(-94,-30) scale(1,1)"><path fill="none" stroke="#000000" d="M 231 456 L 244 456 L 244 512 L 231 512 L 231 456 Z Z" stroke-miterlimit="10"/></g></g></svg>